REM DIRINDEX 1\2,1\3,1\4
REM DIRNAME folder01,folder02,folder03,folder04
TITLE ""
FILE "044 044_TOEFL_3900.mp3" MP3
  TRACK 01 AUDIO
    TITLE "2:cjc151_1903"
    INDEX 01 00:00:00
  TRACK 02 AUDIO
    TITLE "0:"
    INDEX 01 00:01:30
  TRACK 03 AUDIO
    TITLE "3:cjc151_1904"
    INDEX 01 00:03:12
  TRACK 04 AUDIO
    TITLE "0:"
    INDEX 01 00:06:49
  TRACK 05 AUDIO
    TITLE "2:cjc151_1905"
    INDEX 01 00:08:30
  TRACK 06 AUDIO
    TITLE "0:"
    INDEX 01 00:09:61
  TRACK 07 AUDIO
    TITLE "3:cjc151_1906"
    INDEX 01 00:11:40
  TRACK 08 AUDIO
    TITLE "0:"
    INDEX 01 00:15:30
  TRACK 09 AUDIO
    TITLE "2:cjc151_1907"
    INDEX 01 00:17:10
  TRACK 10 AUDIO
    TITLE "0:"
    INDEX 01 00:18:37
  TRACK 11 AUDIO
    TITLE "3:cjc151_1908"
    INDEX 01 00:20:14
  TRACK 12 AUDIO
    TITLE "0:"
    INDEX 01 00:23:61
  TRACK 13 AUDIO
    TITLE "2:cjc151_1909"
    INDEX 01 00:25:41
  TRACK 14 AUDIO
    TITLE "0:"
    INDEX 01 00:26:73
  TRACK 15 AUDIO
    TITLE "3:cjc151_1910"
    INDEX 01 00:28:51
  TRACK 16 AUDIO
    TITLE "0:"
    INDEX 01 00:32:56
  TRACK 17 AUDIO
    TITLE "2:cjc151_1911"
    INDEX 01 00:34:30
  TRACK 18 AUDIO
    TITLE "0:"
    INDEX 01 00:35:70
  TRACK 19 AUDIO
    TITLE "3:cjc151_1912"
    INDEX 01 00:37:46
  TRACK 20 AUDIO
    TITLE "0:"
    INDEX 01 00:41:51
  TRACK 21 AUDIO
    TITLE "2:cjc151_1913"
    INDEX 01 00:43:31
  TRACK 22 AUDIO
    TITLE "0:"
    INDEX 01 00:45:00
  TRACK 23 AUDIO
    TITLE "3:cjc151_1914"
    INDEX 01 00:46:53
  TRACK 24 AUDIO
    TITLE "0:"
    INDEX 01 00:49:70
  TRACK 25 AUDIO
    TITLE "2:cjc151_1915"
    INDEX 01 00:51:50
  TRACK 26 AUDIO
    TITLE "0:"
    INDEX 01 00:53:09
  TRACK 27 AUDIO
    TITLE "3:cjc151_1916"
    INDEX 01 00:54:60
  TRACK 28 AUDIO
    TITLE "0:"
    INDEX 01 00:58:54
  TRACK 29 AUDIO
    TITLE "2:cjc151_1917"
    INDEX 01 01:00:33
  TRACK 30 AUDIO
    TITLE "0:"
    INDEX 01 01:02:08
  TRACK 31 AUDIO
    TITLE "3:cjc151_1918"
    INDEX 01 01:04:00
  TRACK 32 AUDIO
    TITLE "0:"
    INDEX 01 01:07:31
  TRACK 33 AUDIO
    TITLE "2:cjc151_1919"
    INDEX 01 01:09:10
  TRACK 34 AUDIO
    TITLE "0:"
    INDEX 01 01:10:20
  TRACK 35 AUDIO
    TITLE "3:cjc151_1920"
    INDEX 01 01:12:11
  TRACK 36 AUDIO
    TITLE "0:"
    INDEX 01 01:16:24
  TRACK 37 AUDIO
    TITLE "2:cjc151_1921"
    INDEX 01 01:18:02
  TRACK 38 AUDIO
    TITLE "0:"
    INDEX 01 01:19:50
  TRACK 39 AUDIO
    TITLE "3:cjc151_1922"
    INDEX 01 01:21:27
  TRACK 40 AUDIO
    TITLE "0:"
    INDEX 01 01:24:51
  TRACK 41 AUDIO
    TITLE "2:cjc151_1923"
    INDEX 01 01:26:30
  TRACK 42 AUDIO
    TITLE "0:"
    INDEX 01 01:27:46
  TRACK 43 AUDIO
    TITLE "3:cjc151_1924"
    INDEX 01 01:29:25
  TRACK 44 AUDIO
    TITLE "0:"
    INDEX 01 01:33:42
  TRACK 45 AUDIO
    TITLE "2:cjc151_1925"
    INDEX 01 01:35:20
  TRACK 46 AUDIO
    TITLE "0:"
    INDEX 01 01:36:35
  TRACK 47 AUDIO
    TITLE "3:cjc151_1926"
    INDEX 01 01:38:08
  TRACK 48 AUDIO
    TITLE "0:"
    INDEX 01 01:42:10
  TRACK 49 AUDIO
    TITLE "2:cjc151_1927"
    INDEX 01 01:43:64
  TRACK 50 AUDIO
    TITLE "0:"
    INDEX 01 01:45:14
  TRACK 51 AUDIO
    TITLE "3:cjc151_1928"
    INDEX 01 01:46:66
  TRACK 52 AUDIO
    TITLE "0:"
    INDEX 01 01:50:49
  TRACK 53 AUDIO
    TITLE "2:cjc151_1929"
    INDEX 01 01:52:28
  TRACK 54 AUDIO
    TITLE "0:"
    INDEX 01 01:53:55
  TRACK 55 AUDIO
    TITLE "3:cjc151_1930"
    INDEX 01 01:55:34
  TRACK 56 AUDIO
    TITLE "0:"
    INDEX 01 01:59:38
  TRACK 57 AUDIO
    TITLE "2:cjc151_1931"
    INDEX 01 02:01:17
  TRACK 58 AUDIO
    TITLE "0:"
    INDEX 01 02:02:42
  TRACK 59 AUDIO
    TITLE "3:cjc151_1932"
    INDEX 01 02:04:17
  TRACK 60 AUDIO
    TITLE "0:"
    INDEX 01 02:08:17
  TRACK 61 AUDIO
    TITLE "2:cjc151_1933"
    INDEX 01 02:09:71
  TRACK 62 AUDIO
    TITLE "0:"
    INDEX 01 02:11:35
  TRACK 63 AUDIO
    TITLE "3:cjc151_1934"
    INDEX 01 02:13:16
  TRACK 64 AUDIO
    TITLE "0:"
    INDEX 01 02:16:28
  TRACK 65 AUDIO
    TITLE "2:cjc151_1935"
    INDEX 01 02:18:08
  TRACK 66 AUDIO
    TITLE "0:"
    INDEX 01 02:20:36
  TRACK 67 AUDIO
    TITLE "3:cjc151_1936"
    INDEX 01 02:22:15
  TRACK 68 AUDIO
    TITLE "0:"
    INDEX 01 02:25:59
  TRACK 69 AUDIO
    TITLE "2:cjc151_1937"
    INDEX 01 02:27:34
  TRACK 70 AUDIO
    TITLE "0:"
    INDEX 01 02:28:49
  TRACK 71 AUDIO
    TITLE "3:cjc151_1938"
    INDEX 01 02:30:29
  TRACK 72 AUDIO
    TITLE "0:"
    INDEX 01 02:34:11
  TRACK 73 AUDIO
    TITLE "2:cjc151_1939"
    INDEX 01 02:35:65
  TRACK 74 AUDIO
    TITLE "0:"
    INDEX 01 02:37:13
  TRACK 75 AUDIO
    TITLE "3:cjc151_1940"
    INDEX 01 02:38:67
  TRACK 76 AUDIO
    TITLE "0:"
    INDEX 01 02:42:43
  TRACK 77 AUDIO
    TITLE "2:cjc151_1941"
    INDEX 01 02:44:23
  TRACK 78 AUDIO
    TITLE "0:"
    INDEX 01 02:45:46
  TRACK 79 AUDIO
    TITLE "3:cjc151_1942"
    INDEX 01 02:47:21
  TRACK 80 AUDIO
    TITLE "0:"
    INDEX 01 02:52:11
  TRACK 81 AUDIO
    TITLE "2:cjc151_1943"
    INDEX 01 02:53:65
  TRACK 82 AUDIO
    TITLE "0:"
    INDEX 01 02:56:08
  TRACK 83 AUDIO
    TITLE "3:cjc151_1944"
    INDEX 01 02:57:59
  TRACK 84 AUDIO
    TITLE "0:"
    INDEX 01 03:01:06
  TRACK 85 AUDIO
    TITLE "2:cjc151_1945"
    INDEX 01 03:02:58
  TRACK 86 AUDIO
    TITLE "0:"
    INDEX 01 03:04:33
  TRACK 87 AUDIO
    TITLE "3:cjc151_1946"
    INDEX 01 03:06:07
  TRACK 88 AUDIO
    TITLE "0:"
    INDEX 01 03:10:55
